<?xml version="1.0" encoding="utf-8"?>
<!-- Generator: Adobe Illustrator 25.0.0, SVG Export Plug-In . SVG Version: 6.00 Build 0)  -->
<svg version="1.1" id="Layer_1" xmlns="http://www.w3.org/2000/svg" xmlns:xlink="http://www.w3.org/1999/xlink" x="0px" y="0px"
	 viewBox="0 0 512 335.4" style="enable-background:new 0 0 512 335.4;" xml:space="preserve">
<style type="text/css">
	.st0{fill:#FF4B55;}
	.st1{fill:#464655;}
	.st2{fill:#F5F5F5;}
	.st3{fill:#73AF00;}
</style>
<path class="st0" d="M512,111.8H0V8.8C0,4,4,0,8.8,0h494.3c4.9,0,8.8,4,8.8,8.8L512,111.8L512,111.8z"/>
<path class="st1" d="M503.2,335.4H8.8c-4.9,0-8.8-4-8.8-8.8v-103h512v103C512,331.5,508,335.4,503.2,335.4z"/>
<rect y="111.8" class="st2" width="512" height="111.8"/>
<g>
	<path class="st3" d="M308.1,145.3c-0.9-0.5-2-2.2-1.7-3c0.4-0.8-0.2-0.7,1.7-0.2c3.4,0.9,5.6,0.5,7.8-1.4l1.9-1.5l2.3,1.1
		c1.2,0.6,2.5,1,2.9,0.9c1-0.2,3.1-2.8,3-3.7c0-1.2,0.8-0.9,1.3,0.4c0.9,2.4-0.8,6.6-3.1,7.2c-1.1,0.3-2.2,0.2-4-0.3
		c-2.1-0.8-2.4-0.8-3.5,0C314.4,146.6,311,146.8,308.1,145.3"/>
	<path class="st3" d="M316.9,135.9c-1.1-1.6-2.5-7.1-2.1-8.5c0.4-1.2,0.8-1.5,1.9-1.1c1.9,0.7,2.4,1.9,2.2,6.5
		C318.5,136.1,318,137.3,316.9,135.9"/>
	<path class="st3" d="M241,160.5c-4.7,2.6-11.6,3.1-11.6,10.4c-10.1,0.4-22.1,0.8-32.9,0.6c2.9-3.8,21.4-20.9,29.1-27.6
		c1.3-1.1,1.7-3.3,1-4.8l-0.2-0.4c-1.1-2.3-4.1-2.8-6-1.1c-7.7,7.3-15.2,14.2-16.5,15.3c-9.9,10-12.8,12.9-14.4,14.5
		c-1.1,1.1-1.7,2.6-1.7,4.2v0.1c0,3.3,2.7,5.9,5.9,5.9h43.4c2.5,0-0.6-8.5,2.6-8.5c2.2,0,2.4,3.1,2.3,6.3c-0.1,2.5-2.1,4.4-4.6,4.4
		c-18.8,0-38.3,0.2-56.7,0.2c-1.5,0-2.7-1.2-2.7-2.7V174c0-2.8-3.1-4.4-5.5-2.9c-0.1,0.1-0.2,0.1-0.3,0.2c-1.2,0.8-1.9,2.3-1.4,3.6
		c0.3,0.9,0.4,2,0.5,3.1c0,1.5-1.2,2.7-2.7,2.8c-6.1,0.2-12.7,0.2-14.6-3.3c-1.1-2-3.3-3-5.4-2l-0.3,0.1c-2.1,1.1-3,3.7-1.8,5.8
		c2.2,4,4.3,8.6,3.2,15.1c-0.9,2-2.5,3.3-4.3,4.5c-2,1.3-0.7,4.3,1.6,3.8c5.6-1,9.4-5.4,10.6-10.6h86.4c3.2,0,5.7-2.6,5.7-5.7v-18.8
		C249.4,164,243.4,164.2,241,160.5z"/>
	<path class="st3" d="M350.6,135.7c1.3,0.8,2.6,1.6,4,2.3c1.6,0.7,2.2,2.6,1.2,4.1c-0.2,0.4-0.4,0.8-0.6,1.3v37.2
		c2.5,0.5,4,0,5.2-0.8c1.3-0.9,3.1-0.2,3.5,1.3c0.9,3.3,2.3,6.5,3.1,9.4c0.5,1.8-0.9,3.6-2.8,3.6h-14.6c-1.3,0-2.3-1-2.3-2.3v-54.3
		C347.3,135.8,349.2,134.8,350.6,135.7z"/>
	<path class="st3" d="M333,144.7c0,10.3,0.1,21.3,0.1,32.3c0,1.4-1.2,2.6-2.6,2.6h-0.2c-1.4,0-2.6-1.2-2.6-2.6V151
		c0-1.4-1.7-2.2-2.7-1.2l-3.4,3c-0.7,0.6-1.1,1.5-1.1,2.4c0,4.2,0,16.6-0.1,22c0,1.4-1.2,2.6-2.6,2.6h-0.2c-1.4,0-2.6-1.1-2.6-2.6
		c0-3.6-0.1-10.2-0.1-15.2c0-1.4-1.7-2.2-2.8-1.2c-3.5,3.1-4.4,3.8-6.2,5.7c0.2,1,0.9,0,1.4,0.8v5c-12.9-2.4-13.9,7.9-13.4,18.9
		c0.1,1.7,1.4,3,3.1,3h40.5c1.5,0,2.7-1.2,2.7-2.7v-50.4c0-1.7-2-2.5-3.2-1.4c-1,0.9-2,1.8-3,2.6C333.4,142.8,333,143.7,333,144.7z
		 M303.1,179.3c-0.8-2.3,3.7-3.1,4.2-1.1C307.5,180.7,304.1,180.8,303.1,179.3z"/>
	<path class="st3" d="M169.3,198.1c1.6,0,2.8,1.3,2.8,2.8c0,1.6-1.2,2.8-2.8,2.8c-1.6,0-2.9-1.2-2.9-2.8
		C166.4,199.4,167.7,198.1,169.3,198.1"/>
	<path class="st3" d="M261.4,136.8c0.8,0.5,1.5,0.9,2.4,1.3c1.5,0.7,2.1,2.6,1.2,3.9c-0.3,0.4-0.5,0.9-0.6,1.5v37.1
		c2.7,0.6,4.2,0,5.3-0.9c1.2-0.9,2.9-0.3,3.2,1.1c0.7,2.5,1.7,5,2.5,7.4c1,2.9-1.2,5.9-4.2,5.9h-11.4c-1.8,0-3.3-1.5-3.3-3.3v-51.2
		C256.4,137.1,259.2,135.5,261.4,136.8z"/>
</g>
</svg>
