<?xml version="1.0" encoding="utf-8"?>
<!-- Generator: Adobe Illustrator 25.0.0, SVG Export Plug-In . SVG Version: 6.00 Build 0)  -->
<svg version="1.1" id="Layer_1" xmlns="http://www.w3.org/2000/svg" xmlns:xlink="http://www.w3.org/1999/xlink" x="0px" y="0px"
	 viewBox="0 0 153.6 54" style="enable-background:new 0 0 153.6 54;" xml:space="preserve">
<style type="text/css">
	.st0{fill:#FFFFFF;}
	.st1{fill:#16E693;}
</style>
<rect id="Rectangle_6" y="1.2" class="st0" width="8.6" height="41.3"/>
<path id="Path_848" class="st0" d="M145.3,11.5l-7,18.7l-8.1-18.7h-8.6l13,27.8l-6,14.7h8.2l16.7-42.5L145.3,11.5z"/>
<path id="Path_849" class="st0" d="M109.9,15.6h-0.2c-1-1.6-2.4-2.8-4.1-3.6c-1.7-0.8-3.6-1.2-5.6-1.2c-2,0-3.9,0.4-5.8,1.1
	c-1.7,0.7-3.2,1.8-4.5,3.1c-1.3-1.3-2.7-2.3-4.4-3.1c-1.8-0.8-3.8-1.2-5.7-1.2c-2,0-3.9,0.4-5.7,1.3c-0.4,0.2-0.8,0.4-1.1,0.7v6.9
	c0.5-0.4,1.1-0.8,1.7-1c1-0.4,2.2-0.7,3.3-0.7c1.1,0,2.2,0.2,3.3,0.7c1,0.4,1.9,1.1,2.6,1.9c0.7,0.8,1.3,1.8,1.7,2.9
	c0.8,2.4,0.8,5,0,7.3c-0.4,1.1-1,2-1.7,2.9c-0.7,0.8-1.6,1.4-2.6,1.9c-1,0.5-2.1,0.7-3.3,0.7c-2.2,0-4.4-0.9-5.9-2.6
	c-0.7-0.8-1.3-1.8-1.7-2.9c-0.4-1.2-0.6-2.4-0.6-3.7V0h-8.1l-0.1,42.5h8.1V38h0.2c0.9,1.6,2.3,2.9,3.9,3.9c1.8,0.9,3.7,1.4,5.7,1.4
	c2,0,3.9-0.4,5.7-1.2c1.8-0.8,3.4-1.9,4.7-3.3c1.4-1.5,2.5-3.2,3.2-5.1c0.8-2.1,1.2-4.4,1.2-6.7c0-1.1-0.1-2.2-0.3-3.3
	c0-0.1,0.1-0.2,0.1-0.3c0.4-1.1,1-2,1.7-2.9c0.7-0.8,1.6-1.4,2.6-1.9c2.1-0.9,4.5-0.9,6.5,0c1,0.4,1.9,1.1,2.6,1.9
	c0.7,0.8,1.3,1.8,1.7,2.9c0.8,2.4,0.8,5,0,7.3c-0.4,1.1-1,2-1.7,2.9c-0.7,0.8-1.6,1.4-2.6,1.9c-2.1,0.9-4.5,0.9-6.5,0
	c-0.7-0.3-1.4-0.7-1.9-1.3c-0.1,0.2-0.2,0.5-0.3,0.7c-0.9,2.3-2.2,4.3-3.8,6.1c0.6,0.4,1.3,0.8,2,1.1c1.8,0.8,3.7,1.2,5.7,1.2
	c2,0.1,3.9-0.4,5.7-1.3c1.7-1,3.1-2.4,4.1-4.1h0.2v4.6h8.1v-31h-8.2V15.6z"/>
<path id="Path_850" class="st0" d="M50.4,6.4c-2-1.9-4.3-3.4-6.8-4.4C38-0.1,31.8-0.1,26.2,2C21,4,16.9,8,14.9,13.2
	c-2.1,5.6-2.1,11.8,0,17.4c1,2.5,2.5,4.8,4.5,6.7c2,1.9,4.3,3.4,6.8,4.4c2.8,1.1,5.7,1.6,8.7,1.5c2,0,4.1-0.2,6-0.7l-4.9-7
	c-0.4,0-0.8,0.1-1.2,0.1c-1.8,0-3.5-0.3-5.1-1c-1.5-0.6-2.9-1.6-4-2.8c-1.2-1.2-2.1-2.7-2.7-4.3c-0.7-1.8-1-3.7-1-5.6
	c0-2,0.3-3.9,0.9-5.7c0.6-1.6,1.5-3.1,2.7-4.4c1.1-1.2,2.5-2.2,4.1-2.8c1.6-0.7,3.4-1,5.1-1c1.8,0,3.5,0.3,5.2,1
	c1.5,0.6,2.9,1.6,4.1,2.8c1.2,1.3,2.1,2.8,2.7,4.4c0.7,1.8,1,3.8,1,5.7c0,1.2-0.1,2.5-0.4,3.7l5.8,8.3c0.7-1,1.2-2.2,1.7-3.3
	c1.1-2.8,1.6-5.8,1.6-8.8c0-3-0.5-5.9-1.6-8.7C53.9,10.6,52.4,8.3,50.4,6.4z"/>
<path id="Path_851" class="st1" d="M35.6,29.3L46,44.1h10.5L42.6,24.4L35.6,29.3z"/>
</svg>
