<svg xmlns="http://www.w3.org/2000/svg" width="153.559" height="54" viewBox="0 0 153.559 54">
  <g id="logo" transform="translate(-235.645 -466.298)">
    <rect id="Rectangle_6" data-name="Rectangle 6" width="8.551" height="41.318" transform="translate(235.645 467.503)" fill="#373373"/>
    <path id="Path_848" data-name="Path 848" d="M710.669,508.9l-7,18.708L695.576,508.9h-8.608l13.026,27.775-5.968,14.748h8.206l16.7-42.523Z" transform="translate(-329.728 -31.122)" fill="#373373"/>
    <path id="Path_849" data-name="Path 849" d="M512.3,481.849h-.17a10.266,10.266,0,0,0-4.076-3.616,12.519,12.519,0,0,0-5.566-1.2,14.427,14.427,0,0,0-5.766,1.148,13.974,13.974,0,0,0-4.5,3.1,14.133,14.133,0,0,0-4.392-3.069,13.979,13.979,0,0,0-5.739-1.175,12.546,12.546,0,0,0-5.682,1.261,9.6,9.6,0,0,0-1.126.668v6.94a7.539,7.539,0,0,1,1.73-1.037,8.205,8.205,0,0,1,3.3-.66,8.017,8.017,0,0,1,3.271.66,7.613,7.613,0,0,1,2.581,1.864,8.988,8.988,0,0,1,1.722,2.869,10.973,10.973,0,0,1,0,7.347,8.93,8.93,0,0,1-1.722,2.869,7.96,7.96,0,0,1-2.581,1.894,7.733,7.733,0,0,1-3.271.687,7.867,7.867,0,0,1-5.911-2.581,8.932,8.932,0,0,1-1.722-2.869,10.232,10.232,0,0,1-.63-3.672V466.3h-8.15l-.057,42.523h8.148v-4.475h.172a10.934,10.934,0,0,0,3.9,3.872,11.361,11.361,0,0,0,5.739,1.35,14.213,14.213,0,0,0,5.739-1.177,14.551,14.551,0,0,0,4.734-3.3,15.432,15.432,0,0,0,3.214-5.135,18.288,18.288,0,0,0,1.175-6.684,21.09,21.09,0,0,0-.256-3.335c.038-.113.07-.229.113-.339a8.989,8.989,0,0,1,1.722-2.869,7.613,7.613,0,0,1,2.581-1.864,8.44,8.44,0,0,1,6.544,0,7.613,7.613,0,0,1,2.581,1.864,8.989,8.989,0,0,1,1.722,2.869,11.018,11.018,0,0,1,0,7.347,8.932,8.932,0,0,1-1.722,2.869,7.96,7.96,0,0,1-2.581,1.894,8.136,8.136,0,0,1-6.544,0,8.046,8.046,0,0,1-1.934-1.258c-.084.245-.17.49-.264.73a18.832,18.832,0,0,1-3.812,6.124,14.719,14.719,0,0,0,2.023,1.088,13.863,13.863,0,0,0,5.652,1.177,11.3,11.3,0,0,0,5.652-1.32,12.085,12.085,0,0,0,4.1-4.074h.172v4.647H520.5V477.776H512.3Z" transform="translate(-166.713 0)" fill="#373373"/>
    <path id="Path_850" data-name="Path 850" d="M322.187,473.941a19.878,19.878,0,0,0-6.829-4.39,25.327,25.327,0,0,0-17.445,0,19.526,19.526,0,0,0-11.277,11.162,24.689,24.689,0,0,0,.029,17.445,19.781,19.781,0,0,0,4.476,6.743,20.084,20.084,0,0,0,6.829,4.361,23.743,23.743,0,0,0,8.723,1.549,25.128,25.128,0,0,0,6.042-.707l-4.925-6.977c-.4.032-.814.051-1.232.051a13.191,13.191,0,0,1-5.107-.976,11.681,11.681,0,0,1-4.046-2.755,12.881,12.881,0,0,1-2.668-4.3,15.476,15.476,0,0,1-.976-5.624,16.569,16.569,0,0,1,.947-5.739,12.524,12.524,0,0,1,2.669-4.39,11.8,11.8,0,0,1,4.074-2.783,13.206,13.206,0,0,1,5.107-.976,13.579,13.579,0,0,1,5.193.976,11.746,11.746,0,0,1,4.1,2.783,12.879,12.879,0,0,1,2.7,4.39,16.134,16.134,0,0,1,.976,5.739,16.761,16.761,0,0,1-.382,3.654l5.846,8.281a20.58,20.58,0,0,0,1.681-3.3,23.3,23.3,0,0,0,1.578-8.751,22.785,22.785,0,0,0-1.607-8.694A20.124,20.124,0,0,0,322.187,473.941Z" transform="translate(-36.1 -1.245)" fill="#373373"/>
    <path id="Path_851" data-name="Path 851" d="M367.742,561.7l10.427,14.77h10.466l-13.908-19.7Z" transform="translate(-96.507 -66.1)" fill="#16e693"/>
  </g>
</svg>
